<?xml version="1.0" encoding="UTF-8" standalone="no"?>
<!-- Created with Inkscape (http://www.inkscape.org/) -->
<svg id="svg2" xmlns:rdf="http://www.w3.org/1999/02/22-rdf-syntax-ns#" xmlns="http://www.w3.org/2000/svg" height="701.13" viewBox="0 0 846.3802 701.10771" width="846.37" version="1.1" xmlns:cc="http://creativecommons.org/ns#" xmlns:xlink="http://www.w3.org/1999/xlink" xmlns:dc="http://purl.org/dc/elements/1.1/">
 <g id="scale" transform="translate(49.994 50.725)" display="none">
  <text id="scale-text" style="word-spacing:0px;letter-spacing:0px" xml:space="preserve" font-size="31.584px" line-height="125%" y="-2183.0918" x="360.46399" font-family="sans-serif" fill="#000000"><tspan id="tspan3356" y="423.01456" x="533.92957">200 ft</tspan></text>
  <path id="scale-length" d="m464.82 434.91h200" stroke="#000" stroke-width="1px" fill="none"/>
 </g>
 <g id="floorG" transform="translate(49.994 50.725)">
  <g id="floorG-bbox" opacity="0">
   <g id="g4650" stroke="#000" stroke-width="1px" fill="none">
    <path id="path4576" d="m-49.494-39.609v-10.628h10.872"/>
    <path id="path4576-6" d="m-38.866 649.9h-10.628v-10.872"/>
    <path id="path4576-1" d="m795.89-39.609v-10.628h-10.872"/>
    <path id="path4576-6-0" d="m785.26 649.9h10.628v-10.872"/>
   </g>
  </g>
  <g id="floorG-outside">
   <rect id="rect3639" height="351.99" width="347.34" y="113.11" x="396.01" fill="#fafefa"/>
  </g>
  <g id="floorG-base">
   <path id="path4152" d="m428.93 292.33h-32.16c0.00007 20.949 0.0279 84.64 0.0953 119.04h27.332s-0.0275 50.377 0 53.973h-89.763v35.444h42.581v52.164l-64.896 0.4047c0 30.602-21.5 46.677-43.19 47.035-21.689 0.3579-43.749-12.961-43.749-47.035h-66.999v-53.992h41.429v-34.947h-108.03c-0.495 9.9605-5.1766 16.876-17.348 18.345-7.7505-1.5232-15.795-2.3599-17.348-18.345h-56.63v-51.047h35.095v-43.295h-10.294v-33.39l10.294 0.086v-43.042h-34.297v-52.734h16.75v-128.72l-17.797-0.3988 0.2819-60.735 33.866-0.282v-47.856h86.54v51.047h174.28v-51.047h88.534v48.654h356.69l0.7142 240.67h-216.63v-176.46h-127.08c0.37958 58.428 0.0625 65.334-0.19087 124.81h31.923z" fill="#e0d4ce"/>
  </g>
  <g id="floorG-sections" display="none">
   <path id="floorG-mnh" d="m159.06 553.33v-53.992h78.929v54.286z" display="inline" fill="#ffb619"/>
   <path id="floorG-lib" d="m200.85 464.43h-108.39c-0.495 9.9605-5.1766 16.876-17.348 18.345-7.7505-1.5232-15.795-2.3599-17.348-18.345h-56.63v-51.047h35.095v-43.295h-10.294v-33.39l10.294 0.086v-43.042h-34.297v-53.745h95.678v51.88h130.47v149.04h-27.231z" display="inline" fill="#a9a9a9"/>
   <path id="floorG-cma" d="m741.79 292.33h-193.41v-49.033h193.63z" display="inline" fill="#ff8719"/>
  </g>
  <g id="floorG-walls" stroke="#475569" stroke-width="2" fill="none">
   <path id="path4477" d="m397.14 359.18h-51.617v32.589h-34.885v-34.649h-69.259l0.00043 149.91h27.362v7.6229h-27.577v41.345h-14.673" stroke-linecap="square"/>
   <path id="path4477-5" d="m397.26 343.77h-51.751v-36h-35.875v37.375h-68.26v-231.98h116.01v-52.901h13.25v-10.875h-60.626v11.125h24.5v27h11.625v-27.375" stroke-linecap="square"/>
   <g>
    <path id="path4499" d="m334.41 87.092v12.551h-191.72v-47.111"/>
    <path id="path4503" d="m133.5 52.178v60.812h97.051v179.4h-3.7947v205.94h-25.75"/>
    <path id="path4507" d="m549.26 290.14v-31.75h27.25v-6.5001h65.001"/>
    <path id="path4511" d="m629.9 252.29v38.538"/>
    <path id="path4515" d="m650.05 251.76h23.512"/>
    <path id="path4519" d="m684.52 290.48v-49.498h-117.91v-8.6621h-17.855v8.4854h-10.607v-7.7782h-12.905"/>
   </g>
  </g>
  <g id="floorG-outerwall">
   <path id="floorG-outline" d="m429.2 290.83h-31.923v119.04h27.19s-0.0275 50.377 0 53.973h-88.635v35.444h42.581v52.164l-64.896 0.4047c0 30.602-21.5 46.677-43.19 47.035-21.689 0.3579-43.749-12.961-43.749-47.035h-66.999v-53.992h41.429v-34.947h-108.03c0 10.466-8.279 17.741-18.358 17.714-10.079-0.028-16.338-7.2759-16.338-17.714h-56.778v-51.047h35.242v-43.295h-10.294v-33.39l10.294 0.086v-43.042h-35.242v-52.171h17.695v-129.29h-17.695v-61.416h34.046v-47.856h86.54v51.047h174.28v-51.047h88.534v48.654h356.69l0.7142 240.67h-216.63v-176.46h-128.4v124.81h31.923z" stroke="#475569" stroke-width="3" fill="none"/>
  </g>
  <g id="floorG-enter">
   <g id="g4454">
    <rect id="rect4433-8" height="13.25" width="21.5" y="344.77" x="386.01" fill="#8de88d"/>
    <g font-family="sans-serif" fill="#000000">
     <text id="text4450" style="word-spacing:0px;letter-spacing:0px" line-height="125%" font-size="40px" y="354.86652" x="411.26038" xml:space="preserve"><tspan id="tspan4452" font-size="10px" y="354.86652" x="411.26038">Portal</tspan></text>
     <text id="text4459" style="word-spacing:0px;letter-spacing:0px" xml:space="preserve" font-size="10px" y="278.63126" x="482.81607" line-height="125%"><tspan id="tspan4461" x="482.81607" y="278.63126"/></text>
     <text id="text4463" style="word-spacing:0px;letter-spacing:0px" xml:space="preserve" font-size="40px" y="276.15634" x="480.34113" line-height="125%"><tspan id="tspan4465" x="480.34113" y="276.15634"/></text>
    </g>
   </g>
   <g id="g4471">
    <rect id="rect4433" height="16.5" width="21.5" y="266.64" x="514.76" fill="#8de88d"/>
    <text id="text4467" style="word-spacing:0px;letter-spacing:0px" line-height="125%" font-size="40px" y="277.68561" x="461.42584" font-family="sans-serif" xml:space="preserve" fill="#000000"><tspan id="tspan4469" font-size="10px" y="277.68561" x="461.42584">Courtyard</tspan></text>
   </g>
  </g>

  <g id="floorG-wifi" display="none">
   <g stroke-linejoin="round" stroke-dashoffset="0.6" stroke="#475569" stroke-linecap="square" stroke-width=".40489" fill="#8de88d">
    <ellipse id="Portal" rx=".15674" ry=".24513" cy="348.66" cx="383.14"/>
    <ellipse id="CME" rx=".15674" ry=".24513" cy="349.14" cx="277.76" display="inline"/>
    <ellipse id="B_L-Hall" rx=".15674" ry=".24513" cy="246.28" cx="235.5" display="inline"/>
    <ellipse id="Conf" rx=".15674" ry=".24513" cy="101.15" cx="101.15" display="inline"/>
    <ellipse id="AOTA" rx=".15674" ry=".24513" cy="83.141" cx="507.76" display="inline"/>
    <ellipse id="CMATheater" rx=".15674" ry=".24513" cy="278.14" cx="691.76" display="inline"/>
    <ellipse id="Fossil" rx=".15674" ry=".24513" cy="507.02" cx="201.63" display="inline"/>
   </g>
   <g stroke="#000" stroke-width="1px" fill="none">
    <path id="PortaltoCME" d="m276.88 348.27s179.35-3.5172 188.13 1.5178c8.7756 5.0349 12.581 17.347 12.581 17.347"/>
    <path id="CMEtoHall" d="m276.26 349.64s-31.649 1.7974-36.75-0.75001c-5.1018-2.5474-4-102.75-4-102.75"/>
    <path id="CMEtoFF" d="m278.01 348.89s-37.497-1.4046-42 2.25c-4.5034 3.6546 3.9246 146.66-4.5 154.5-8.4246 7.8463-31.5 6.2501-31.5 6.2501"/>
    <path id="FFtoHall" d="m197.85 507.91s28.255 3.9558 33.234 0.70711c4.9794-3.2487 2.1213-262.69 2.1213-262.69"/>
    <path id="HalltoGS" d="m235.26 245.89s-3.9822-135.63 2.5-139c6.4822-3.3724 108.3 6.2039 113.75-0.75001 5.4552-6.9539 1.554-49.936-1.75-51.751-3.304-1.814-8.4034-0.51922-11 1.75-1.1734 1.0254 0.25 15.25 0.25 15.25"/>
    <path id="AOTAtoCMAT" d="m535.01 262.14s9.015-8.8631 15.5-11.5c6.4851-2.637 24.437-3.7006 40-4.5 15.564-0.79943 46.307-1.6179 52.501 2.75 6.1935 4.368 12.75 23.5 12.75 23.5"/>
    <path id="PortaltoAOTA" d="m477.87 368.61s-5.4089-72.627 7.7782-86.975 39.663-1.4926 47.023-8.1318c7.3603-6.6392 3.182-11.314 3.182-11.314"/>
    <path id="AOTAtoHF" d="m535.5 260.78-3.89-73.54"/>
    <path id="BirdtoCME" d="m528.76 417.62c-4.6309-16.306-22.243-19.979-36.5-19.5-48.963 1.6451-116.95-1.8077-165.75 2.5" transform="translate(-49.994 -50.725)"/>
    <path id="BirdtoPortal" d="m478.42 366.85c-4.6309-16.306-22.243-19.979-36.5-19.5-48.963 1.6451-56.7-0.0577-63.001 1" display="inline"/>
    <path id="PorttoSimm" d="m434.25 399.62s-39.089 0.71072-49 2.75c-3.7309 0.7676 4.2498 41.002 2.25 50.5-0.15829 0.75182 1.4855-0.42413 2.25-0.50001 3.9814-0.39512 10.185-1.0698 11.375 2.75 1.7885 5.7413 0.94448 10.839-1.125 17.125-2.736 8.3103-21.5 6.2501-21.5 6.2501" transform="translate(-49.994 -50.725)"/>
    <path id="PorttoCoat" d="m519.73 404.49s-15.174-8.0675-14.142-24.042c1.0319-15.974 17.519-57.301 18.385-68.944 0.8658-11.643-13.592-42.193-12.374-60.812 1.2174-18.618 38.399-18.917 28.992-42.427-9.4076-23.51-37.477-21.213-37.477-21.213" transform="translate(-49.994 -50.725)"/>
    <path id="PorttoTheat" d="m526.45 414.03s-8.1501-64.818 7.0711-81.318 41.67-1.4128 52.326-8.8389c10.657-7.4261-0.30756-13.377 12.374-21.567 12.682-8.1905 49.6-6.3661 65.408-6.364 15.808 0.002 21.114-2.2886 28.992 2.8285 7.8777 5.117 13.435 23.688 13.435 23.688" transform="translate(-49.994 -50.725)"/>
    <path id="PorttoCME" d="m476.81 361.89s-17.521-9.5481-50.912-13.789c-33.391-4.2406-149.2 1.7678-149.2 1.7678"/>
    <path id="CMEtoCoat" d="m364.87 398.83s84.834 5.0067 106.77-0.35356c21.94-5.3603 30.649-22.64 37.477-40.659 6.8276-18.019 2.3437-44.461-1.7678-60.812-4.1115-16.35-17.395-25.354-18.031-36.063-0.636-10.708 7.8903-12.398 8.1318-22.628 0.24147-10.23-13.679-25.889-10.96-35.709 2.7187-9.82 17.678-15.91 17.678-15.91" transform="translate(-49.994 -50.725)"/>
    <path id="BirdtoLib" d="m500.99 399.54s17.8-21.666 24.042-33.941c6.2414-12.275 1.7255-30.242 13.082-38.891 11.356-8.6493 29.642 4.553 40.305-2.1214 10.664-6.6744 28.992-37.477 28.992-37.477s1.2283 11.209 4.2426 13.435c3.0144 2.2264 8.1318 3.5356 8.1318 3.5356" transform="translate(-49.994 -50.725)"/>
   </g>
  </g>
  <g id="floorG-ani">
   <rect id="rect4495" stroke-linejoin="round" stroke-dashoffset="0.6" height="7.0711" width="6.364" stroke="#fff" stroke-linecap="square" y="609.38" x="592.77" stroke-width="2" fill="#fff"/>
  </g>
 </g>
 <g id="floor1" transform="translate(49.994 50.725)">
  <g id="g4656" opacity="0">
   <g id="g4658" stroke="#000" stroke-width="1px" fill="none">
    <path id="path4660" d="m-49.494-39.609v-10.628h10.872"/>
    <path id="path4662" d="m-38.866 649.9h-10.628v-10.872"/>
    <path id="path4664" d="m795.89-39.609v-10.628h-10.872"/>
    <path id="path4666" d="m785.26 649.9h10.628v-10.872"/>
   </g>
  </g>
  <g id="floor1-outside">
   <rect id="rect4887" height="110.1" width="602.46" y="1.7512" x="121.13" fill="#fafefa"/>
  </g>
  <g id="floor1-base">
   <path id="path4173" d="m740.66 292.33h-216.63v-176.46h-127.08c0.37958 58.428 0.0625 65.334-0.19087 124.81h31.923v51.653h-32.16c0.00007 20.949 0.0279 84.64 0.0953 119.04h27.332s-0.0275 50.377 0 53.973h-89.763v35.444h42.581v52.164l-64.896 0.4047c0 30.602-21.5 46.677-43.19 47.035-21.689 0.3579-43.749-12.961-43.749-47.035h-66.999v-53.992h41.429v-34.947h-108.03c0 10.466-8.279 17.741-18.358 17.714-10.079-0.028-16.338-7.2759-16.338-17.714h-56.63v-51.047h35.095v-43.295h-10.294v-33.39l10.294 0.086v-43.042h-34.297v-51.047h16.75v-130.41l-16.547-0.3988 0.2819-60.735 32.616-0.282v-47.856h86.54v51.047h174.28v-51.047h88.534v48.654h180.42v32.949h162.1v174.76h14.142z" fill="#ebead7"/>
  </g>
  <g id="floor1-sections" display="none">
   <path id="floor1-cma-entry" display="inline" fill="#ff8719" d="m411.47 51.628h153.12v33.066h160.57v28.673h-149.65v145.97h-51.481v-143.5h-112.56z"/>
   <path id="floor1-mnh" d="m199.36 499.33h-41.429v53.992h66.999c0 34.074 22.06 47.393 43.749 47.035 21.689-0.3579 43.19-16.433 43.19-47.035l64.896-0.4047v-52.164h-42.581v-35.444h89.763c-0.0275-3.5962 0-53.973 0-53.973h-27.332c-0.0674-34.404-0.0952-98.096-0.0953-119.04h32.16v-51.653h-31.923v-126.13h-51.952v128.21l-185.98 0.0469v49.64h71.337v120.85h-30.802z" display="inline" fill="#ffb619"/>
   <path id="floor1-cma-arch" d="m344.81 114.53v128.24l-202.27-0.0299v-128.3z" display="inline" fill="#ff8719"/>
   <path id="floor1-lib" d="m199.36 464.43h-108.03c0 10.466-8.279 17.741-18.358 17.714-10.079-0.028-16.338-7.2759-16.338-17.714h-56.63v-51.047h35.095v-43.295h-10.294v-33.39l10.294 0.086v-43.042h-34.297v-33.904h47.411v-10.85h52.78v11.396h48.74v-17.614l9.0756-0.00016v49.687h71.484v120.97h-30.683z" display="inline" fill="#a9a9a9"/>
   <path id="floor1-music" d="m120.45 54.028v-51.047h-86.54v47.856l-32.973 0.282s0.1168 0.1168-0.2819 60.735l16.904 0.3988v130.41h-16.75v17.184h47.411v-10.859l52.654-0.00043v11.364h48.866v-17.582h-7.1973v-188.74z" display="inline" fill="#15a4b8"/>
  </g>
  <g id="floor1-walls" stroke="#475569" fill="none">
   <g>
    <g stroke-width="2">
     <path id="path4237-90-2" d="m573.35 113.27h79.196v16.235h49.442v-16.617h22.628"/>
     <path id="path4237-90-2-0" d="m656.94 113.15h38.635"/>
     <path id="path4237-90-2-0-4" d="m548.53 289.97v-176.77h17.166v129.46"/>
     <path id="path4237-90-2-0-3" d="m548.27 233.52h17.422"/>
     <path id="path4237-90-2-0-32" d="m548.19 258.79h27.527v-124.11h16.491v-21.087"/>
     <path id="path4237-90-2-0-0" d="m564.42 83.632h-16.107v-33.112"/>
     <path id="path4237-90-2-0-0-4" d="m501.22 83.69v-33.112"/>
     <path id="path4237-90-2-0-1" d="m484.94 84.021h38.635"/>
     <path id="path4237-90-2-0-0-4-6" d="m451.81 83.469v-33.112"/>
     <path id="path4237-90-2-0-1-3" d="m418.92 83.8h51.54"/>
     <path id="path4237-90-2-0-1-3-5" d="m412.21 50.31v50.735h-43.231v-51.649h-12.473v-23h-35.25v23.25h-12.25v38.25l-80.626-0.000031v-34.875"/>
     <path id="path4237-90-2-0-1-3-9" d="m368.2 113.87h29.04"/>
     <path id="path4237-90-2-0-0-4-6-8" d="m345.07 241.96v-128.13h-14.142"/>
     <path id="path4237-90-2-0-1-3-56" d="m364.3 241.76-203.92 0.61901v48.349l203.08-0.00014"/>
     <path id="path4237-90-2-0-1-3-7" d="m376.47 241.76h20.358v-2.2981"/>
     <path id="path4237-90-2-0-1-3-3" d="m377.02 290.73 19.013 0.00014"/>
    </g>
    <path id="path4237-90-2-0-1-3-3-8" d="m396.06 241.44-0.00014 48.138"/>
    <g stroke-width="2">
     <path id="path4237-90-2-0-0-4-6-8-0" d="m285.68 241.21-0.00012-45.658h-10.165v-13.632h-4.1545l0.00021 59.574"/>
     <path id="path4237-90-2-0-0-4-69" d="m271.36 161.45v-48.237"/>
     <path id="path4237-90-2-0-0-4-69-4" d="m285.68 161.77v-48.237"/>
     <path id="path4237-90-2-0-3-7" d="m270.87 135.96h15.212"/>
     <path id="path4237-90-2-0-3-7-6" d="m223.52 113.65 76.338 0.00003"/>
     <path id="path4237-90-2-0-3-7-8" d="m271.36 168.75h14.277l0.0838 17.678h-4.638v-13.17h-9.723z"/>
     <path id="path4237-90-2-0-3-7-9" d="m101.02 113.65h88.838"/>
     <path id="path4237-90-2-0-3-7-9-7" d="m18.084 113.65h29.212"/>
     <path id="path4237-90-2-0-3-7-9-9" d="m18.834 241.67h142.43"/>
     <path id="path4237-90-2-0-3-7-9-4" d="m142.84 114.31v127.02"/>
     <path id="path4237-90-2-0-1-3-4" d="m242.86 130.74h-16.008v11.314"/>
     <path id="path4237-90-2-0-1-3-4-6" d="m171 130.74h16.008v11.314"/>
     <path id="path4237-90-2-0-1-3-4-6-4" d="m186.53 53.059v34.837h-44.725v-34.581"/>
     <path id="path4237-90-2-0-3-7-9-4-6" d="m229.06 290.9v122.78h-28.648v49.059"/>
     <path id="path4489" d="m201.56 290.83v-17.501"/>
     <path id="path4489-2" d="m201.74 259.98v-17.501"/>
     <path id="path4517-0-6-5-4-0" d="m309.93 497.41v44.516"/>
     <path id="path4517-0-1" d="m193.51 498.39h57.994"/>
     <path id="path4517-0-1-7-0" d="m257.45 498.39h18.744"/>
     <path id="path4693" d="m250.51 498.52v17.875h34v-17.625"/>
     <path id="path4517-0-1-7" d="m283.51 498.39h27.369"/>
     <path id="path4517" d="m229.26 368.64h78.501"/>
    </g>
   </g>
   <circle id="path4521" stroke-linejoin="round" cx="276.75" stroke-linecap="square" stroke-dashoffset="0.6" cy="390.18" r="12.728" stroke-width="2"/>
   <g stroke-width="2">
    <path id="path4517-0" d="m228.6 412.81h57.994"/>
    <path id="path4517-0-6" d="m293.13 412.81h57.994"/>
    <path id="path4517-0-6-5" d="m345.76 411.9v19.244"/>
    <path id="path4517-0-6-5-4" d="m345.63 443.77v19.244"/>
    <path id="path4517-0-6-7" d="m320.41 498.39h14.33"/>
    <path id="path4517-0-5" d="m356.24 412.98h40.405v-7.2479"/>
   </g>
  </g>
  <g id="floor1-outerwall">
   <path id="floor1-outline" d="m741.18 290.83h-216.63v-176.46h-127.08l-0.19101 124.81h31.923v51.653h-32.16c0.00007 20.949 0.0279 84.641 0.0953 119.04h27.332s-0.0275 50.377 0 53.973h-89.763v35.444h42.581v52.164l-64.896 0.4046c0 30.602-21.5 46.677-43.19 47.035-21.689 0.3579-43.749-12.961-43.749-47.035h-66.999v-53.992h41.429v-34.947h-108.03c0 10.466-8.279 17.741-18.358 17.714-10.079-0.028-16.338-7.2759-16.338-17.714h-55.648v-51.047h34.113v-43.295h-10.294v-33.39l10.294 0.086v-43.042h-34.112v-51.047h16.565v-130.41h-16.562v-61.235l32.916-0.282v-47.856h86.54v51.047h174.28v-51.047h88.534v48.654h181.33v33.066h160.57v174.64h15.498z" stroke="#475569" stroke-width="3" fill="none"/>
  </g>
  <g id="floor1-enter">
   <g id="g4790" transform="translate(2)">
    <rect id="rect4784" height="19.092" width="56.216" y="69.149" x="567.4" fill="#8de88d"/>
    <text id="text4786" style="word-spacing:0px;letter-spacing:0px" line-height="125%" font-size="40px" y="67.380981" x="580.75177" font-family="sans-serif" xml:space="preserve" fill="#000000"><tspan id="tspan4788" font-size="12.5px" y="67.380981" x="580.75177">Main</tspan></text>
   </g>
   <g id="g4881">
    <rect id="rect4874" height="15.5" width="37" y="41.89" x="188.51" fill="#8de88d"/>
    <text id="text4877" style="word-spacing:0px;letter-spacing:0px" line-height="125%" font-size="40px" y="35.890228" x="161.60081" font-family="sans-serif" xml:space="preserve" fill="#000000"><tspan id="tspan4879" font-size="12.5px" y="35.890228" x="161.60081">Carriage Drive</tspan></text>
   </g>
  </g>
  <g id="floor1-wifi" display="none">
   <g stroke-width="0" fill="#fb81a2">
    <circle id="CMALib" opacity="0.595" cx="590.79" cy="254.63" r="1.7678"/>
    <circle id="CoatRoom" opacity="0.595" cx="418.61" display="inline" cy="90.579" r="1.7678"/>
    <circle id="GrandST" opacity="0.595" cx="350.37" display="inline" cy="99.418" r="1.7678"/>
    <circle id="Parkhurst" opacity="0.595" cx="708.53" display="inline" cy="133.01" r="1.7678"/>
   </g>
   <g stroke="#000" stroke-width="1px" fill="none">
    <path id="HFtoPark" d="m530.9 100.62 138.59-1.419"/>
    <path id="HFtoCoat" d="m532.67 100.26-116.32 4.9498"/>
    <path id="HFtoGS" d="m531.61 100.62c-39.528 3.1695-79.149 5.1741-118.8 6.0105-20.739 0.43748-41.484 0.55535-62.226 0.35355"/>
    <path id="GStoCoat" d="m350.23 103.44 67.529 2.4749"/>
    <path id="GStoHBC" d="m359.42 107.33s2.1651-6.108 7.4247 17.324 4.6 101.1 4.5962 125.16c-0.004 24.058-0.70712 19.092-0.70712 19.092"/>
    <path id="HBCtoGems" d="m371.8 265.73c-14.641-1.3903-36.681-2.1776-42.073 11.667-5.3923 13.845-40.761 0.25216-48.437 0" display="inline"/>
    <path id="GemtoWertz" d="m282.7 276.33s-37.728 5.8609-50.205-0.35356-41.366-7.0711-41.366-7.0711" display="inline"/>
    <path id="WertztoHBC" d="m193.96 266.08s25.948-13.899 48.084-13.435c13.793 0.28892 46.091-3.9182 60.812-3.8891 23.382 0.0462 67.883 17.678 67.883 17.678" display="inline"/>
    <path id="DinotoSim" d="m301.26 383.64s-11.359 12.894-14 10c-3.2098-3.5172-6.4884-14.266-11.25-14.25-4.3462 0.0146-7.9892 6.768-7.0001 11 0.73185 3.1313 5.226 3.9068 8.2501 5 3.1699 1.1459 7.7068-0.97023 10 1.5 6.0836 6.553-2.3935 7.0126-8.7501 8.7501-3.0557 0.83522-11.9-1.3714-14 1-5.6416 6.37-2.5 26.25-2.5 26.25" display="inline"/>
    <path id="HBCtoDino" d="m370.38 266.43s3.8872 25.709-1.4142 36.77c-8.2324 17.176-43.134 37.477-43.134 37.477" display="inline"/>
    <path id="DinotoVP" d="m325.84 341.03s2.119 32.544-3.5356 40.305c-4.0399 5.5452-20.506 1.7678-20.506 1.7678" display="inline"/>
    <path id="VPtoEarth" d="m301.76 383.14s-7.1956 8.9297-9.0001 14.25c-2.6608 7.8452-3.2253 16.524-2.25 24.75 1.8956 15.99 15.5 45.75 15.5 45.75" display="inline"/>
   </g>
   <g stroke-width="0" fill="#fb81a2">
    <circle id="Gem" opacity="0.595" cx="295.43" display="inline" cy="272.09" r="1.7678"/>
    <circle id="Wertz" opacity="0.595" cx="192.19" display="inline" cy="278.81" r="1.7678"/>
    <circle id="Earth" opacity="0.595" cx="318.77" display="inline" cy="490.59" r="1.7678"/>
    <circle id="Control" opacity="0.595" cx="112.64" display="inline" cy="214.11" r="1.7678"/>
    <circle id="Ticket" opacity="0.595" cx="60.316" display="inline" cy="39.804" r="1.7678"/>
    <circle id="CarDrive" opacity="0.595" cx="206.69" display="inline" cy="106.63" r="1.7678"/>
   </g>
   <g stroke="#000" stroke-width="1px" fill="none">
    <path id="GStoCD" d="m354.01 105.89s-35.442 0.97718-53.001-1c-8.1205-0.91439-15.887-4.0239-24-5-14.57-1.753-29.496-3.7309-44-1.5-8.9092 1.3703-25.5 9.0001-25.5 9.0001"/>
    <path id="GStoBalc" d="m350.59 104.5s-27.002-2.0739-33.588 2.4749-6.364 65.762-6.364 65.762"/>
    <path id="BalctoCD" d="m207.75 108.75s8.1067-3.6873 11.314-1.0607c3.2071 2.6266-1.2035 11.458 1.4142 13.435 3.0459 2.3 38.111-3.0169 40.659 1.7678 2.5485 4.7846-1.5923 49.3 1.7678 53.387 3.3601 4.0876 11.209-0.084 14.496 3.182 3.2872 3.266-1.4132 7.313 3.8891 12.021 5.3024 4.7079 18.524-0.55886 24.749-6.0105 6.2252-5.4516 4.2427-14.142 4.2427-14.142"/>
    <path id="CDtoTick" d="m208.46 107.33s-75.424 2.2378-77.075 1.0607-0.39034-0.26645-9.8996-7.0711c-9.5092-6.8047-42.038-29.313-47.023-33.941-4.9855-4.6284 2.4749-32.527 2.4749-32.527"/>
    <path id="TicktoCont" d="m76.226 37.329s-2.7154 39.484-2.4749 45.255c0.24054 5.7714 0.71528 24.982 0.70712 34.649-0.0082 9.6661-0.12442 15.559-0.35355 23.335"/>
    <path id="ConttoCD" d="m74.507 138.89s-1.9099-22.684-0.75001-31c1.1599-8.3166-0.41627-14.186 5.7501-18.5 6.1663-4.3141 18.913-1.0269 32.25-0.5s2.4542 18.933 19.75 19.5c17.296 0.56723 75.001-1.25 75.001-1.25" display="inline"/>
    <path id="HFtoLib" d="m531.96 99.555s22.248-1.0769 33.234 0.35355c0 0 5.1786 8.0892 4.9498 18.739-0.93149 43.36 0 130.11 0 130.11" display="inline"/>
    <path id="AOTAtoCoat" d="m586.2 286.75s7.6617-114.36-3.5356-132.23c-7.2114-11.511-111.72-1.4142-111.72-1.4142" transform="translate(-49.994 -50.725)"/>
    <path id="GStoAOTA" d="m400.23 155.23s134.07-0.62445 167.23-3.5356c7.3925-0.64897 16.943 4.8204 18.739 12.021 7.4037 29.699 0.35357 123.39 0.35357 123.39" transform="translate(-49.994 -50.725)"/>
    <path id="PortaltoET" d="m384.32 432.77s-20.282-2.2449-28.285 2.8285c-9.8666 6.2551-16.78 18.437-18.031 30.052-2.0125 18.675 18.031 53.387 18.031 53.387" transform="translate(-49.994 -50.725)"/>
    <path id="ETtoFF" d="m306.76 468.89s-22.612 16.523-26.75 24.5c-4.1384 7.9769 1.3588 14.055-2.25 17.5-3.6088 3.4451-7.3324 0.97811-12.25 1-4.9178 0.0219-17.825-0.052-29.5-0.5-11.676-0.44798-27.031-1.4361-40.5-2.75" display="inline"/>
    <path id="ETtoCME" d="m305.76 467.39s-21.469 15.963-27.25 27.5c-2.5289 5.0471 3.1093 16.115-2.5 16.75-11.438 1.2961-39.45 1.4576-42-0.75001-3.9428-3.4134 0-35.25 0-35.25"/>
    <path id="LibtoAOTA" d="m619.79 297.36s5.0078-128.84-3.5356-146.73c-4.8995-10.258-32.527-10.253-32.527-10.253" transform="translate(-49.994 -50.725)"/>
    <path id="D14toPark" d="m718.07 144.62s17.986-3.2519 19.799 3.182c0.884 3.1375-4.2935 5.458-7.4247 6.364-4.691 1.3573-14.496-2.1213-14.496-2.1213" transform="translate(-49.994 -50.725)"/>
    <path id="LibtoPark" d="m620.85 296.3s-2.5991-97.351-1.4142-121.27-1.3256-18.261 2.4749-22.274c3.8005-4.0135-6.1379-0.11722 10.607-1.7678s90.157-2.8285 90.157-2.8285" transform="translate(-49.994 -50.725)"/>
    <path id="ParktoPortal" d="m721.96 148.16s-81.322 0.99191-112.43 2.4749c-9.0552 0.43167-18.116 5.4821-24.395 12.021-4.5688 4.7578 2.6955 156.91-0.70711 161.93-3.0506 4.4954-11.259-1.052-16.264 1.0607-8.9178 3.7643-21.567 19.446-21.567 19.446" transform="translate(-49.994 -50.725)"/>
    <path id="BalctoLHall" d="m361.51 222.76s0.72071 14.743-13.966 18.562c-14.686 3.8192-14.259 2.3256-17.324-0.35356-3.0652-2.6792 0.0127-7.0054-2.8284-9.7228-2.8411-2.7175-9.6666-3.6887-13.082-3.182-3.415 0.50671 0.67263 24.337-1.0607 33.588s2.1397 14.858-7.6015 21.567c-9.7412 6.7088-48.084-1.2374-48.084-1.2374" transform="translate(-49.994 -50.725)"/>
    <path id="GrLtoBS" d="m125.16 85.579-0.71 107.13" transform="translate(-49.994 -50.725)"/>
    <path id="CoattoD17" d="m471 154.37s-55.043 2.7629-58.501 0c-3.4579-2.7629 2.7797-45.66-0.75-48.5s-20.051-2.3402-22-0.50001c-1.9496 1.8401-5.1626 34.06 0.25 36.5 5.4126 2.4404-0.13792 2.6222 13.75 2.5 13.888-0.12218 69.751 1.25 69.751 1.25" transform="translate(-49.994 -50.725)"/>
    <path id="CoattoBird" d="m459.48 134.91s-38.311 20.241-36.77 37.831c1.5406 17.589 27.301 33.699 43.134 31.113 15.833-2.5856-1.0924-43.801 25.103-35.002 26.195 8.7985-3.182 122.68-3.182 122.68"/>
    <path id="ETtoPort" d="m305.33 467.61s-18.099 17.407-21.921 25.81c-3.8216 8.4027 1.4543 13.786-3.5356 18.385-4.9899 4.5992-17.085 1.666-24.395 1.4142-7.3106-0.25179-17.106 0.9332-21.921-4.9498-4.8142-5.883 0.70711-50.912 0.70711-50.912"/>
   </g>
  </g>
  <g id="floor1-ani">
   <rect id="rect4897" height="1.9446" width="1.9446" y="36.091" x="413.87" fill="#fafefa"/>
  </g>

 </g>
 <g id="floor2" transform="translate(49.994 50.725)">
  <g id="g4676" opacity="0">
   <g id="g4678" stroke="#000" stroke-width="1px" fill="none">
    <path id="path4680" d="m-49.494-39.609v-10.628h10.872"/>
    <path id="path4682" d="m-38.866 649.9h-10.628v-10.872"/>
    <path id="path4684" d="m795.89-39.609v-10.628h-10.872"/>
    <path id="path4686" d="m785.26 649.9h10.628v-10.872"/>
   </g>
  </g>
  <g id="floor2-base">
   <path id="path4244" d="m84.971 77.449v24.117l-32.795 0.2832s0.11745 0.11678-0.28125 60.734l16.725 0.39844v130.41h-16.75v51.047h34.297v119.64h-35.094v51.047h56.629c0 10.438 6.2585 17.685 16.338 17.713 10.079 0.028 18.357-7.2463 18.357-17.713l108.04-0.01v34.947h-41.428v53.99h66.998c0 34.074 22.059 47.393 43.748 47.035 21.689-0.3578 43.189-16.433 43.189-47.035l64.895-0.4043v-52.162h-42.58v-35.445h89.762c-0.0275-3.5962 0-53.973 0-53.973h-27.33c-0.0674-34.404-0.0956-98.093-0.0957-119.04 109.24 1.2022 234.89 0.52514 344.14-0.0996l5.7129-240.56h-198.09l-30.451 11.428-0.14844-11.428-30.908 11.428 0.30859-11.428-30.6 11.428v-11.428l-30.6 11.428v-11.428h-42.633v-24.916h-88.533v27.309h-174.28v-27.309h-86.539zm363.05 89.107h127.08v125.51l-127.27-0.71094c0.25337-59.473 0.57099-66.371 0.19141-124.8zm-168.52 175.69h79.625v75.125l-79.625 0.875v-76z" fill-rule="evenodd" transform="translate(-49.994 -50.739)" fill="#e3eef3"/>
  </g>
  <g id="floor2-sections" display="none">
   <path id="floor2-cma" d="m202.7 291.19h538.78l5.7142-240.53h-198.09l-30.453 11.429-0.147-11.429-30.909 11.429 0.309-11.429-30.6 11.429v-11.429l-30.601 11.429v-11.429h-49.239v62.887h-75.141v-60.494h-159.02v189.07h59.393zm322.16-50.819v-125.51h-127.08c0.37958 58.428 0.0625 65.326-0.19087 124.8z" fill-rule="evenodd" display="inline" fill="#ff8719"/>
   <path id="floor2-mnh" d="m397.69 411.33h27.332s-0.0275 50.377 0 53.973h-89.763v35.444h42.581v52.164l-64.896 0.4046c0 30.602-21.5 46.677-43.19 47.035-21.689 0.3579-43.749-12.961-43.749-47.035h-66.999v-53.992h41.429v-86.465l29.017-0.00026 0.00043-44.249h80.357v15.357h36.429v11.786h51.453z" display="inline" fill="#ffb619"/>
   <path id="floor2-music" display="inline" fill="#15a4b8" d="m143.56 54.028h-22.045v-27.308h-86.54v24.118l-32.973 0.282-0.2819 60.735 16.904 0.3988v130.84h124.98z"/>
   <path id="floor2-lib" d="m200.44 462.84h-108.04c0 10.466-8.279 17.741-18.358 17.714-10.079-0.028-16.338-7.2759-16.338-17.714l-56.63 0.0001v-49.457h35.095v-119.64h-34.297v-52.591h201.21v49.542h26.328l0.0397 122.26h-29.015z" display="inline" fill="#a9a9a9"/>
   <path id="path4235-2-3-8" d="m596.88 78.715v-21.25" display="inline" stroke="#475569" stroke-width="2" fill="none"/>
  </g>
  <g id="floor2-outerwall" stroke="#475569" fill="none" stroke-width="3">
   <path id="floor2-outline" d="m524.73 239.83v-125.51h-127.08c0.37958 58.428 0.0625 66.036-0.19087 125.51zm-324.67 223.05v34.947h-41.429v53.992h66.999c0 34.074 22.06 47.393 43.749 47.035 21.689-0.3578 43.19-16.433 43.19-47.035l64.896-0.4046v-52.164h-42.581v-35.444h89.763c-0.0275-3.5962 0-53.973 0-53.973h-27.332c-0.0674-34.404-0.0953-117.64-0.0953-117.64l344.14-0.00026v-242.07h-192.38l-30.453 11.429-0.147-11.429-30.6 11.429v-11.429l-30.6 11.429v-11.429l-30.601 11.429v-11.429h-42.632v-24.915h-88.534v27.308h-174.28v-27.308h-86.54v24.118l-33.095 0.282v61.133h16.744v130.41l-16.744-0.00005v51.047h34.291v119.64h-34.291v51.047l55.827-0.0001c0 10.438 6.2585 17.686 16.338 17.714 10.079 0.028 18.358-7.2473 18.358-17.714z"/>
   <g>
    <path id="path4235-2-2-1-0-9-5" d="m457.15 83.922v-21.512"/>
    <path id="path4235-2-2-1-0-9-6" d="m487.78 83.922v-21.512"/>
    <path id="path4235-2-2-1-0-9" d="m518.58 83.922v-21.512"/>
   </g>
  </g>
  <g id="floor2-walls" stroke="#475569" fill="none">
   <g>
    <g stroke-width="2">
     <path id="path4228" d="m526.43 292.03v-20.375"/>
     <path id="path4233" d="m525.88 260.03v-20.375"/>
     <path id="path4235" d="m566.36 290.9v-33.875"/>
     <path id="path4237" d="m567.08 271.28h6.7171"/>
     <path id="path4237-9" d="m587.38 271.28h121.63"/>
     <path id="path4235-6" d="m726.01 292.09v-44.375"/>
     <path id="path4237-4" d="m719.88 271.15h6.7501"/>
     <path id="path4237-9-8" d="m620.19 241.65 105.44-0.50001v-56.501"/>
     <path id="path4237-99" d="m607.88 241.65h-41.25v-32.5h41.375"/>
     <path id="path4235-2" d="m598.01 242.59v-11.125"/>
     <path id="path4235-2-2" d="m598.01 219.43v-21.512"/>
    </g>
    <path id="path4237-7" d="m525.29 240.57h12.592" stroke-width="2"/>
    <g stroke-width="2">
     <path id="path4233-2" d="m536.96 241.5v-128.56"/>
     <path id="path4233-2-1" d="m550.76 241.5v-128.56"/>
     <path id="path4237-9-7" d="m618.55 209.18h76.325"/>
     <path id="path4235-2-3" d="m694.74 240.92v-11.125"/>
     <path id="path4235-2-5" d="m694.74 220.77v-23.146"/>
     <path id="path4237-9-85" d="m618.55 177.2h109.07"/>
     <path id="path4235-2-2-1" d="m597.86 187.6v-21.512"/>
     <path id="path4237-90" d="m598.04 177.02h11.313"/>
     <path id="path4235-2-5-4" d="m694.92 188.6v-23.146"/>
     <path id="path4235-2-5-4-2" d="m694.74 156.65v-23.146"/>
     <path id="path4237-8" d="m551.73 233.06h14.319"/>
     <path id="path4235-2-2-1-0" d="m597.81 155.78v-21.512"/>
     <path id="path4237-9-7-0" d="m618.76 145.05h76.325"/>
     <path id="path4237-99-1" d="m608.94 145.15h-41.25v-31.375h41.375"/>
     <path id="path4237-8-9" d="m551.46 177.02h14.319"/>
     <path id="path4235-5" d="m565.93 201.33v-47.875"/>
     <path id="path4237-9-7-0-2" d="m525.76 113.78h42.03"/>
     <path id="path4235-2-7" d="m597.88 124.28v-11.125"/>
     <path id="path4237-9-7-0-0" d="m618.75 113.21h107.44"/>
     <path id="path4235-5-8" d="m725.85 169.32v-64.316"/>
     <path id="path4237-4-1" d="m712.4 145.03h13.291"/>
     <path id="path4235-2-5-4-2-7" d="m694.27 124.52v-22.459"/>
     <path id="path4235-6-7" d="m725.76 93.232v-44.375"/>
     <path id="path4235-2-5-4-2-2" d="m693.76 94.476v-23.146"/>
     <path id="path4237-9-7-0-3" d="m579.34 83.153h115.58"/>
     <path id="path4237-8-9-1" d="m551.35 217.15h14.319"/>
     <path id="path4237-8-9-2" d="m550.85 135.9h16.194"/>
     <path id="path4235-2-7-5" d="m570.13 113.09v-11.125"/>
     <path id="path4841" d="m570.01 93.903v-10.75h-3.75v-32.5"/>
     <path id="path4237-8-9-2-2" d="m548.3 83.153h18.747"/>
     <path id="path4235-5-3" d="m549.3 83.934-0.00005-33.733"/>
     <path id="path4235-2-3-7" d="m693.76 64.402v-13.063"/>
    </g>
    <path id="path4235-2-2-1-0-9-5-1" d="m413.17 89.235v-39.387" stroke-width="3"/>
    <path id="path4235-2-2-1-0-9-5-7" d="m412.88 114.03v-13.762" stroke-width="3"/>
    <g stroke-width="2">
     <path id="path4228-3" d="m428.3 291.65v-20.375"/>
     <path id="path4228-8" d="m428.3 260.61v-20.375"/>
     <path id="path4237-9-1" d="m396.52 291.7h-192.69v-50.221h67.553v-128.59h-129.42v-59.751"/>
     <path id="path4235-2-2-3" d="m285.5 193.53v47.941h27.135"/>
     <path id="path4235-2-2-3-3" d="m318.93 241.58 26.76 0.00049v-57.85h22.191"/>
     <path id="path4228-3-4" d="m345.67 292.11v-19.938"/>
     <path id="path4228-8-3" d="m345.67 259.25v-18.559"/>
     <path id="path4235-5-5" d="m318.65 113.46 27.235-0.00047v56.821h21.997"/>
     <path id="path4237-9-7-4" d="m346.16 241.58h36.373"/>
     <path id="path4235-2-2-0" d="m188.13 101.4v-31.262"/>
     <path id="path4235-2-2-1-0-1" d="m272.5 100.9v-30.012"/>
     <path id="path4237-9-7-0-6" d="m188.05 82.762h83.75"/>
    </g>
    <path id="path4235-2-2-1-0-9-5-7-9" d="m272.7 64.058v-10.512" stroke-width="2"/>
    <g stroke-width="2">
     <path id="path4235-2-2-8" d="m285.68 160.42v-47.233"/>
     <path id="path4237-9-7-0-6-2" d="m271.51 113.46h40.749"/>
     <path id="path4237-9-7-0-6-2-0" d="m346.09 113.46h36.44"/>
     <path id="path4237-90-8" d="m270.97 214.65h14.438"/>
    </g>
    <path id="path4237-90-8-1" d="m297.19 224.61h36.741v-94.93h-36.741z" stroke-dashoffset=".60001"/>
    <g stroke-width="2">
     <path id="path4235-2-2-1-0-9-5-7-9-7" d="m302.47 113.73v-15.992"/>
     <path id="path4235-2-2-1-0-9-5-7-9-7-2" d="m302.56 88.889v-15.992"/>
     <path id="path4235-2-2-1-0-9-5-7-9-7-2-8" d="m302.38 65.2v-12.191h-6.8944"/>
     <path id="path4235-2-2-1-0-9-5-7-9-7-0" d="m376.96 113.31v-15.992"/>
     <path id="path4235-2-2-1-0-9-5-7-9-7-2-86" d="m377.05 88.474v-15.992"/>
     <path id="path4235-2-2-1-0-9-5-7-9-7-2-8-5" d="m377.05 62.819v-12.191h6.8944"/>
    </g>
    <g stroke-width="2">
     <path id="path5337" d="m249.25 513.62v-50.251h30.5v-45.75h79.751v45.735h35.75v-18.985h52.251" transform="translate(-49.994 -50.725)"/>
     <path id="path5342" d="m226.13 551.75v-54.094h82.556v-34.118l26.163-0.35355"/>
     <path id="path5346" d="m229.93 412.63 25.279-0.00043"/>
     <path id="path5350" d="m309.22 412.63h-38.007"/>
     <path id="path5354" d="m345.28 412.63h17.059"/>
     <path id="path5354-6" d="m379.23 412.63h17.559v-4.61"/>
    </g>
   </g>
   <path id="path4631" d="m279.38 343.24v74.126" transform="translate(-49.994 -50.725)" stroke-width="1px"/>
   <path id="path4635" d="m359 416.87v-73.876" transform="translate(-49.994 -50.725)" stroke-width="1px"/>
   <circle id="circle4810" stroke-linejoin="round" stroke-width="2" stroke-linecap="square" stroke-dashoffset="0.6" cy="390.18" cx="276.75" r="12.728"/>
  </g>
  <g id="floor2-wifi" display="none">
   <g stroke="#000" stroke-width="1px" fill="none">
    <path id="SD8toSD11" d="m680.95 159.83c-1.8536-0.13371-3.7106-0.22213-5.5685-0.26516-13.442-0.31128-26.888 1.7525-40.305 0.8839-2.7436-0.17762-5.4931-0.48032-8.1449-1.2064-2.6518-0.72604-5.2142-1.8912-7.3232-3.6551-3.6502-3.0529-5.7251-7.897-5.4165-12.646 0.30857-4.7485 2.993-9.2834 7.0075-11.838"/>
    <path id="HFtoSD1" d="m529.76 264.61c2.2703 0.18789 4.5764-0.0683 6.7501-0.75001 3.5896-1.1257 6.7171-3.3582 9.6938-5.6585s5.9086-4.7271 9.3064-6.3416c5.9216-2.8138 12.85-2.9228 19.25-1.5 8.2928 1.8436 15.916 6.1036 24.25 7.7501 2.7958 0.55234 5.6508 0.80426 8.5001 0.75001"/>
    <path id="SD1toSD2" d="m607.41 258.86h0.79551 74.335 0.44195"/>
    <path id="SD2toSD5" d="m682.94 258.87c3.553-0.0915 7.1043-0.25361 10.651-0.48614 5.5348-0.36288 11.101-0.90552 16.414-2.4996 5.3127-1.594 10.401-4.3097 14.08-8.4607 2.8697-3.238 4.78-7.2224 6.1872-11.314 4.3477-12.64 4.1242-26.382 2.8284-39.687-0.30447-3.1261-0.68321-6.312-2.0208-9.1539-0.66881-1.4209-1.578-2.7407-2.7489-3.7873s-2.611-1.8122-4.1576-2.085c-1.7056-0.30078-3.483 0.006-5.0807 0.67423-1.5976 0.66859-3.0288 1.6861-4.3352 2.823-2.6129 2.2739-4.7891 5.0584-7.6432 7.0211-3.157 2.171-6.9789 3.2086-10.792 3.5873-3.8126 0.37864-7.6557 0.13472-11.483-0.0517-21.191-1.0323-42.424-0.29006-63.64-0.26515-0.73658 0.00086-1.4732 0.00086-2.2097 0"/>
    <path id="SD2toSD8" d="m682.81 258.92c0.96219-0.0476 1.9246-0.0918 2.887-0.13259 6.412-0.27156 12.874-0.39585 19.148-1.7474 7.5512-1.6268 14.87-5.1652 19.961-10.975 4.3958-5.0169 6.9078-11.444 8.3159-17.964 1.5956-7.3881 1.8717-15.002 1.7038-22.558-0.1797-8.0862-0.86049-16.152-1.5429-24.211-0.10748-1.2694-0.21661-2.5478-0.56178-3.7741-0.34516-1.2263-0.94523-2.4113-1.8972-3.2578-0.92059-0.81868-2.1099-1.2721-3.3047-1.5727-1.1947-0.30056-2.4217-0.46542-3.6078-0.79868-3.0774-0.8647-5.7147-2.8064-8.4269-4.4982-2.6426-1.6484-5.4331-3.094-8.4091-4.0126-4.1843-1.2916-8.6114-1.5088-12.938-2.1875-3.3482-0.52526-6.6737-1.3326-10.063-1.375-1.0652-0.0133-2.1313 0.0494-3.1875 0.1875"/>
    <path id="SD1toSD5" d="m607.51 258.86c1.544-1.8211 2.8502-3.8436 3.875-6.0001 1.9096-4.0182 2.8215-8.447 3.25-12.875 1.1086-11.456-0.91459-23.028 0-34.5 0.14783-1.8543 0.37727-3.7238 1.029-5.466 0.73499-1.9648 2.0065-3.7258 3.6402-5.0416"/>
    <path id="SD5toSD8" d="m680.95 159.92c-1.1875-0.0427-2.375-0.0843-3.5625-0.125-16.886-0.57823-33.85-0.95072-50.626 1.0625-2.044 0.2453-4.0974 0.52892-6.0532 1.1714-1.9559 0.64249-3.8262 1.6676-5.1969 3.2036-1.7251 1.9331-2.5366 4.5336-2.8209 7.1088-0.28438 2.5752-0.0891 5.1756-0.0541 7.7663 0.0364 2.6949-0.0984 5.4207 0.46277 8.0568 0.28058 1.318 0.73783 2.6072 1.4443 3.7548 0.70647 1.1475 1.6697 2.1508 2.843 2.8136 0.62243 0.35162 1.2999 0.60566 2 0.75001"/>
    <path id="SD11toSD5" d="m618.63 195.23c-1.0845-0.67144-2.0595-1.5193-2.875-2.5-1.7731-2.1323-2.7494-4.8376-3.1953-7.5747-0.44591-2.7371-0.39219-5.5286-0.30475-8.3004 0.38416-12.177 1.3955-24.327 1.875-36.5 0.0607-1.5404 0.11522-3.0974 0.52172-4.5844s1.2055-2.921 2.4783-3.7907c1.2238-0.83616 2.8373-1.0734 4.25-0.62501"/>
    <path id="SD14toSD11" d="m621.02 131.37c-3.2617-2.0415-5.9296-5.0196-7.6015-8.4854-1.184-2.4545-1.8745-5.1634-1.862-7.8885s0.74354-5.463 2.2155-7.7564c2.0675-3.2212 5.4571-5.3963 9.0157-6.806 7.469-2.9587 15.744-2.8913 23.777-2.7401 10.373 0.19535 20.744 0.46053 31.113 0.7955"/>
    <path id="SD8toSD14" d="m677.63 98.482c6.7957 0.2343 13.607 0.02537 20.375-0.62501 3.8076-0.36586 7.6075-0.87162 11.431-0.96938 3.8239-0.09776 7.7022 0.22376 11.319 1.4694 4.5773 1.5765 8.6466 4.6685 11.25 8.7501 3.3392 5.2351 4.1306 11.71 3.9565 17.917-0.1741 6.2069-1.2241 12.374-1.2065 18.583 0.0151 5.3448 0.81698 10.753-0.22056 15.996-0.51877 2.6216-1.5141 5.1836-3.1638 7.286s-3.9905 3.7183-6.6157 4.2184c-2.7571 0.52522-5.6204-0.19315-8.1736-1.3589-2.5532-1.1657-4.8795-2.7668-7.3266-4.1412-8.5826-4.8205-18.74-6.7807-28.5-5.5001"/>
    <path id="SD14toSD17" d="m677.42 98.311c-35.336-1.3633-70.716-1.5991-106.07-0.70711-26.425 0.66677-52.834 1.9636-79.197 3.8891"/>
    <path id="SD11toSD17" d="m621.2 131.55c-2.9944-1.9452-5.3726-4.8241-6.7176-8.1318-1.4134-3.476-1.6791-7.2933-2.4749-10.96-0.79466-3.6618-2.2167-7.3364-4.9498-9.8996-1.8892-1.7717-4.306-2.9098-6.808-3.579-2.502-0.66922-5.1009-0.89225-7.6878-1.0172-6.9491-0.33569-13.911 0.01644-20.86 0.35356-26.272 1.2745-52.554 2.3353-78.843 3.182"/>
    <path id="H16toHF" d="m529.8 264.63-42.323-0.22855"/>
    <path id="HBCtoH16" d="m487.73 264.31-145.49 1.591"/>
    <path id="HBCtoSD17" d="m342.78 265.9c23.688-3.7361 48.172 10.728 46.796-23.1l-0.12508-131.86c0.0442-9.0534 1.1102-17.585 22.875-15.547 26.132 0.58487 52.942 4.147 80.341 5.999l0.0946-0.28052"/>
   </g>
   <g fill-opacity=".27059" fill="#000366">
    <ellipse id="ScaifeD11" rx=".79550" ry=".70711" cy="131.37" cx="622"/>
    <ellipse id="scaifeD5" rx=".79550" ry=".70711" display="inline" cy="195.72" cx="618.73"/>
    <ellipse id="path4987-2" rx=".79550" ry=".70711" display="inline" cy="98.134" cx="677.42"/>
    <ellipse id="scaifeD17" rx=".79550" ry=".70711" display="inline" cy="101.32" cx="492.68"/>
    <ellipse id="HeinzBC" rx=".79550" ry=".70711" display="inline" cy="265.9" cx="342.42"/>
    <ellipse id="HeinzD16" rx=".79550" ry=".70711" display="inline" cy="264.48" cx="487.91"/>
    <ellipse id="HeinzF" rx=".79550" ry=".70711" display="inline" cy="264.31" cx="529.63"/>
    <ellipse id="ScaifeD1" rx=".79550" ry=".70711" display="inline" cy="258.47" cx="607.77"/>
    <ellipse id="ScaifeD2" rx=".79550" ry=".70711" display="inline" cy="259" cx="683.07"/>
    <ellipse id="ScaifeD8" rx=".79550" ry=".70711" display="inline" cy="159.65" cx="680.78"/>
   </g>
   <path id="HBCtoBalc" d="m343.01 265.65c-4.7548 0.7401-9.7634-0.2809-13.849-2.8231-4.0857-2.5422-11.214-8.3345-12.651-12.927-0.93651-6.6824 2.0033-17.016-1.9435-18.79-9.7777-0.3509-23.581 3.6501-23.055-5.7147-1.3834-22.769 0.0161-44.756-0.002-64.496" stroke="#000" stroke-width="1px" fill="none"/>
   <ellipse id="Balcony" fill-opacity=".27059" rx=".93751" ry=".87501" cy="161.4" cx="291.57" fill="#000366"/>
   <path id="BalctoBF" d="m291.5 161.21c0-12.666 0.0234-37.86 2.5-39.938 3.553-2.4685 14.739 1.5952 20.069-2.1055 2.9196-2.9813 1.4475-21.535 0.30591-23.145-2.2045-2.4321-13.077-2.2891-25.625-2.625" stroke="#000" stroke-width="1px" fill="none"/>
   <ellipse id="BruceF" fill-opacity=".27059" rx=".93751" ry=".87501" display="inline" cy="93.334" cx="288.75" fill="#000366"/>
   <path id="BFtoSD17" d="m288.33 93.267s25.4 1.1044 26.163 1.7678c0.76369 0.66334 3.8298 8.2893 4.8677 11.18s39.157 1.6329 41.625 0.31066c2.4683-1.3223 0.57522-9.8076 4.9498-12.198 4.3746-2.3901 126.93 7.0711 126.93 7.0711" display="inline" stroke="#000" fill="none"/>
   <path id="BFtoBM" d="m288.5 93.355s-1.3865 0.99641-3.8007-3.0052-0.0544-19.251-2.1213-20.86c-2.067-1.6089-13.028-3.8361-21.655-2.3865s-31.594 10.793-32.616 8.7505" stroke="#000" stroke-width="1px" fill="none"/>
   <ellipse id="BruceM" fill-opacity=".27059" rx=".93751" ry=".87501" display="inline" cy="76.084" cx="228.47" fill="#000366"/>
   <path id="BMtoBB" d="m228.05 75.766s-18.943-1.4571-24.749-3.182c-5.8055-1.7249-5.4054-3.8898-10.253-4.9498-4.8478-1.06-13.374-1.175-18.385 0.35356-5.0106 1.5286-10.96 7.0711-10.96 7.0711" stroke="#000" stroke-width="1px" fill="none"/>
   <ellipse id="BruceB" fill-opacity=".27059" rx=".93751" ry=".87501" display="inline" cy="75.28" cx="163.65" fill="#000366"/>
   <g stroke="#000" fill="none">
    <path id="BBtoBF" d="m163.75 75.146s-2.4394 12.448-0.62501 17.5c1.8144 5.0525 3.406 8.0053 9.7501 11 6.3441 2.9948 19.07 1.9136 27.375 1 8.3054-0.91364 18.039-6.0941 22-5.7501 3.9612 0.34406 14.121 1.2618 23.75 2.25 9.6291 0.98821 28.341 3.1657 34 3.875 5.6592 0.70934 8.7501-11.875 8.7501-11.875" stroke-width="1px"/>
    <path id="BMtoSD17" d="m228.75 75.646s24.904-6.1633 38.25-7.5001c13.347-1.3367 33.462 2.4085 41.5-0.25 6.5688-1.8735 9.5356-11.947 12.25-12.25 2.7145-0.30327 40.019-0.73654 42 1s0.43815 9.8191 4 11.25c3.5619 1.4311 12.873-2.7409 21.5 1.5 8.6269 4.241 6.4624 18.464 24 27 17.538 8.5366 80.751 5 80.751 5" stroke-width="1px"/>
    <g stroke-width="1px">
     <path id="BalctoBM" d="m340.5 212.62s-1.9239-37.309 4-41.5c4.6279-3.2745 12.602 4.0768 17 0.50001 5.9102-4.8061 2.686-15.389 3-23 0.44161-10.704 2.6298-28.664-8.0001-30-13.047-1.6403-46.916-1.5149-64.501 0.00001-4.8412 0.41708-12.5 7.5001-12.5 7.5001" transform="translate(-49.994 -50.725)"/>
     <path id="SD17toHF" d="m543.63 116.17s3.2743 108.87-1.0607 132.23c-4.3349 23.361-14.142 16.617-14.142 16.617"/>
     <path id="D17toD5" d="m542.51 153.12s74.342-5.951 93.501-6.0001c9.2437-0.0237 20.503 3.9242 25 12 9.7215 17.457-3.9966 54.576 3 80.501 0.73826 2.7355 4 7.5001 4 7.5001" transform="translate(-49.994 -50.725)"/>
     <path id="D2toHF" d="m754.49 307.26s7.6572 6.1872 9.1925 10.607c1.7033 4.9034 4.4576 15.036-0.70712 15.556-30.629 3.086-102.95 2.6268-130.82-1.4142-8.656-1.2554-0.49801-18.968-6.364-25.456-4.2003-4.6455-11.428-6.7655-17.678-6.364-10.31 0.66224-15.565 13.098-25.577 15.642" transform="translate(-49.994 -50.725)"/>
     <path id="BFtoGS" d="m337.29 145.33s48.02 2.3187 52.326-0.35355c4.3061-2.6722-2.4033-19.771 0.7071-22.274 3.1104-2.5033 19.126-2.8258 24.042 0.35355 4.916 3.1793-1.4142 34.295-1.4142 34.295" transform="translate(-49.994 -50.725)"/>
    </g>
   </g>
   <g fill="#2744ff">
    <ellipse id="MHBack" rx="1.0607" transform="translate(-49.994 -50.725)" ry="1.591" cy="282.37" cx="73.751"/>
    <ellipse id="GreenL" rx="1.0607" transform="translate(-49.994 -50.725)" ry="1.591" cy="98.115" cx="112.5"/>
    <ellipse id="GreenR" rx="1.0607" transform="translate(-49.994 -50.725)" ry="1.591" cy="94.615" cx="143"/>
    <ellipse id="VP" rx="1.0607" transform="translate(-49.994 -50.725)" ry="1.591" cy="401.13" cx="383.26"/>
    <ellipse id="Dino" rx="1.0607" transform="translate(-49.994 -50.725)" ry="1.591" cy="437.37" cx="288.86"/>
   </g>
   <path id="D17toGS" d="m542 152.4c-27.867-2.7875-58.555-4.9114-83.793-6.0105-25.238-1.099-64.403-1.4293-67.529-1.4142-3.8336 0.0185 0-20.86 0-20.86" transform="translate(-49.994 -50.725)" stroke="#000" stroke-width="1px" fill="none"/>
  </g>
  <g id="floor2-ani">
   <rect id="rect4528" height="54.448" width="45.962" y="-12.623" x="-14.848" fill="#fff"/>
  </g>
  <g id="floor2-areas" opacity=".5">
   <g id="HeinzGallery">
    <rect id="rect3577" opacity=".5" height="49.5" width="321.5" y="241.15" x="204.5" fill="#ffb99d"/>
    <text id="text5245" opacity="1" style="word-spacing:0px;letter-spacing:0px" xml:space="preserve" font-size="15px" y="270.17676" x="362.88174" font-family="Sans" line-height="125%" fill="#000000"><tspan id="tspan5247" x="362.88174" y="270.17676"><tspan id="tspan5249" y="270.17676" x="362.88174">Heinz Gallery</tspan></tspan></text>
   </g>
   <flowRoot id="flowRoot4396" style="word-spacing:0px;letter-spacing:0px" xml:space="preserve" transform="translate(.0018851 -.094707)" line-height="125%" font-size="15px" font-family="Sans" fill="#000000"><flowRegion id="flowRegion4398"><rect id="rect4400" y="149.75" width="48.437" x="290.62" height="48.79"/></flowRegion><flowPara id="flowPara4402">Sculpture</flowPara></flowRoot>
   <g id="SculptureBalc" transform="matrix(-1 0 0 -1 629.69 355.89)">
    <rect id="rect4394" opacity=".5" height="127.99" width="59.044" y="113.95" x="285.32" fill="#ffb99d"/>
    <text id="text4404" opacity="1" style="word-spacing:0px;letter-spacing:0px;text-anchor:middle;text-align:center" transform="rotate(90)" line-height="125%" xml:space="preserve" font-size="12.5px" y="-320.16821" x="174.38312" font-family="Sans" fill="#000000"><tspan id="tspan4406" y="-320.16821" x="174.38312">Sculpture</tspan><tspan id="tspan4408" y="-304.54306" x="174.38312">Balcony</tspan></text>
   </g>
   <g id="HeinzArch" transform="matrix(-1 0 0 -1 741.77 353.94)">
    <rect id="rect4394-2" opacity=".5" height="128.87" width="53.387" y="112.54" x="344.19" fill="#ffb99d"/>
    <text id="text4404-8" opacity="1" style="word-spacing:0px;letter-spacing:0px;text-anchor:middle;text-align:center" transform="rotate(90)" line-height="125%" xml:space="preserve" font-size="15px" y="-359.74255" x="176.15094" font-family="Sans" fill="#000000"><tspan id="tspan4408-0" font-size="12.5px" y="-359.74255" x="176.15094">Heinz Architecture</tspan></text>
   </g>
   <flowRoot id="flowRoot4463" style="word-spacing:0px;letter-spacing:0px" xml:space="preserve" transform="translate(59.574 -1.4142)" line-height="125%" font-size="10px" font-family="Sans" fill="#000000"><flowRegion id="flowRegion4465"><rect id="rect4467" height="24.749" width="45.962" y="137.02" x="527.86"/></flowRegion><flowPara id="flowPara4469"/></flowRoot>
   <flowRoot id="flowRoot4471" style="word-spacing:0px;letter-spacing:0px" xml:space="preserve" transform="translate(59.574 -1.4142)" line-height="125%" font-size="10px" font-family="Sans" fill="#000000"><flowRegion id="flowRegion4473"><rect id="rect4475" height="20.506" width="66.468" y="152.93" x="498.86"/></flowRegion><flowPara id="flowPara4477"/></flowRoot>
   <g id="Stairs" transform="translate(59.574 -1.4142)">
    <rect id="rect4461" opacity=".5" height="126.93" width="26.517" y="115.01" x="465.46" fill="#bcff9d"/>
    <text id="text4479" opacity="1" style="word-spacing:0px;letter-spacing:0px" xml:space="preserve" transform="rotate(90)" font-size="10px" y="-481.21832" x="160.6835" font-family="Sans" line-height="125%" fill="#000000"><tspan id="tspan4481" x="160.6835" y="-481.21832">Stairs</tspan></text>
   </g>
   <flowRoot id="flowRoot4506" font-size="15px" xml:space="preserve" style="word-spacing:0px;letter-spacing:0px" line-height="125%" font-family="Sans" fill="#000000"><flowRegion id="flowRegion4508"><rect id="rect4510" height="24.5" width="91" y="148.74" x="600.5"/></flowRegion><flowPara id="flowPara4512"/></flowRoot>
   <g id="Scaife">
    <path id="path4488" opacity=".5" d="m377.1 49.603v64.347h174.09v103.77h15.38v74.07h175.19v-241.66h-191.45l-31.467 11.314-0.17678-11.491-30.759 11.491-0.17677-10.96-30.406 10.96-0.35356-11.314-30.052 10.783-0.17678-10.96z" fill-rule="evenodd" fill="#ffb99d"/>
    <text id="text4514" opacity="1" style="word-spacing:0px;letter-spacing:0px" line-height="125%" font-size="15px" y="164.14708" x="609.00787" font-family="Sans" xml:space="preserve" fill="#000000"><tspan id="tspan4520" y="164.14708" x="609.00787">Scaife</tspan></text>
    <text id="text4514-5" opacity="1" style="word-spacing:0px;letter-spacing:0px" line-height="125%" font-size="15px" y="228.82042" x="606.51825" font-family="Sans" xml:space="preserve" fill="#000000"><tspan id="tspan4520-6" y="228.82042" x="606.51825">Galleries</tspan></text>
   </g>
   <g id="BruceGallery">
    <rect id="rect4556" opacity=".5" height="62.501" width="160.7" y="52.146" x="142" fill="#ffb99d"/>
    <text id="text5269" opacity="1" style="word-spacing:0px;letter-spacing:0px" xml:space="preserve" font-size="12.5px" y="108.49048" x="189.15469" font-family="Sans" line-height="125%" fill="#000000"><tspan id="tspan5271" x="189.15469" y="108.49048"><tspan id="tspan5273" y="108.49048" x="189.15469" font-size="12.5px">Bruce Gallery</tspan></tspan></text>
   </g>
   <g id="g4551">
    <rect id="rect4461-9" opacity=".5" height="87.329" width="74.954" y="25.384" x="302.12" fill="#bcff9d"/>
    <text id="text4545" style="word-spacing:0px;letter-spacing:0px;text-anchor:middle;text-align:center" line-height="125%" font-size="15px" y="42.177971" x="340.03833" font-family="Sans" xml:space="preserve" fill="#000000"><tspan id="tspan4547" y="42.177971" x="340.03833">Grand</tspan><tspan id="tspan4549" y="60.927971" x="340.03833">Staircase</tspan></text>
   </g>
  </g>

 </g>
 <g id="floor3" transform="translate(49.994 50.725)">
  <g id="g4704" opacity="0">
   <g id="g4706" stroke="#000" stroke-width="1px" fill="none">
    <path id="path4708" d="m-49.494-39.609v-10.628h10.872"/>
    <path id="path4710" d="m-38.866 649.9h-10.628v-10.872"/>
    <path id="path4712" d="m795.89-39.609v-10.628h-10.872"/>
    <path id="path4714" d="m785.26 649.9h10.628v-10.872"/>
   </g>
  </g>
  <g id="floor3-base">
   <path id="path4428" d="m91.702 464.43c0 10.466-8.279 17.741-18.358 17.714-10.079-0.028-16.338-7.2759-16.338-17.714h-56.63v-51.047h35.095v-119.64h-34.297v-51.047h16.75v-130.41l-16.657-0.3988c0.3987-60.613 0.2819-60.73 0.2819-60.73l32.726-0.282v-24.622h86.54v27.813h174.28v-27.813h88.534v25.42h24.826v63.993h-11.617v125.91h26.022v51.091h-25.966c0.0001 20.949 0.028 84.313 0.095 118.72h27.332s-0.027 50.377 0 53.973h-89.762v35.444h42.58v52.164l-64.896 0.4047c0 30.602-21.5 46.677-43.19 47.035-21.69 0.3579-43.749-12.961-43.749-47.035h-66.999v-53.992h41.429v-34.947z" fill="#f7f0fa"/>
  </g>
  <g id="floor3-walls" stroke="#475569" fill="none">
   <path id="path4593" d="m322.48 61.283v38.272h36.328v-38.272h-36.328z" stroke-width="1px"/>
   <g stroke-width="2">
    <path id="path4605" d="m408.89 113.64h-52.126l1.625 298.88h20.75v24h-44.58v26.375"/>
    <path id="path4609" d="m309.51 516.14v-29.357h-12.63v-25.456h37.381m-316.19-348.15h328.69l-0.75003 256.73-37.5-0.5v4.5h-80.501v114.25 28h10.146v-17.601h39.245v9.1925h-18.915v8.4854l51.025-0.0765" stroke-linecap="square"/>
    <g>
     <path id="path4613" d="m295.51 48.265h52.598v-11.025h-15.111v10.076"/>
     <path id="path4617" d="m358.63 25.765v23.125h25.25"/>
     <path id="path4626" d="m272.63 72.331v27.577"/>
    </g>
    <g>
     <path id="path4630" d="m370.03 113.08v-13.612l7.4247 0.08839" stroke-linecap="square"/>
     <path id="path4634" d="m377.46 87.799v-13.612"/>
     <path id="path4638" d="m377.46 60.663-0.09-11.402" stroke-linecap="square"/>
    </g>
    <g>
     <path id="path4642" d="m310.51 112.89v-13.5h-7.1251"/>
     <path id="path4646" d="m303.38 88.391v-15.875"/>
     <path id="path4650" d="m303.13 62.015v-13.5"/>
     <path id="path4654" d="m320.62 48.377v-22.451"/>
     <path id="path4658" d="m142.87 113.08v-13.877"/>
     <path id="path4663" d="m142.87 90.274v-16.44"/>
     <path id="path4667" d="m142.87 64.906v-11.225"/>
     <path id="path4671" d="m34.882 49.89h10.5"/>
     <path id="path4675" d="m55.757 49.89h40.125"/>
     <path id="path4679" d="m104.38 49.89h15.875"/>
    </g>
    <path id="path4683" d="m228.26 486.61h57.276v-25.191h-33.853v24.219" stroke-linecap="square"/>
    <g>
     <path id="path4687" d="m228.38 411.64 56.251-0.00002"/>
     <path id="path4691" d="m297.63 411.64h10.875v-17.5h38.276v17.5h-39.068"/>
     <path id="path4695" d="m308.51 383.02-0.00001-13.625"/>
     <path id="path4699" d="m284.91 516.66v-10.96h12.816v10.43"/>
    </g>
    <circle id="circle4813" stroke-linejoin="round" cx="276.75" stroke-linecap="square" stroke-dashoffset="0.6" cy="390.18" r="12.728"/>
   </g>
  </g>
  <g id="floor3-sections" display="none">
   <path id="floor3-mnh-bird" d="m334.56 498.44h-25.857v17.832h-11.869v-16.948h-58.589v16.885h-11.996v-17.138h-26.514v-83.241h28.124v-34.511h80.535v-11.511h37.054v-256.67h12.844v299.1h20.102v26.805l-43.834 0.035z" display="inline" fill="#ffb619"/>
   <path id="floor3-lib" d="m227.86 415.83v-125.5h-27.495v-48.98h-199.19v52.865l34.297-0.4464v119.64h-35.095v51.047h56.63c0 10.438 6.2585 17.686 16.338 17.714 10.079 0.028 18.358-7.2473 18.358-17.714l108.03 0.0001-0.0004-48.624h28.124" display="inline" fill="#a9a9a9"/>
   <path id="floor3-mnh-polar" d="m303.23 54.028h-182.41v-27.813h-86.54v24.622l-32.746 0.282s0.1168 1.0798-0.2819 61.698c0 0 212.28 0.0183 301.98 0z" display="inline" fill="#ffb619"/>
   <path id="floor3-mnh-egypt" d="m408.46 51.628v62.721h-38.224v-14.819h6.7347v-47.902z" display="inline" fill="#ffb619"/>
   <path id="floor3-music" d="m17.923 241.36v-128.54h124.93v128.54z" display="inline" fill="#15a4b8"/>
  </g>
  <g id="floor3-outerwall">
   <path id="floor3-outline" d="m92.224 462.93c0 10.466-8.279 17.741-18.358 17.714-10.079-0.028-16.338-7.2759-16.338-17.714h-56.02v-51.047h34.485v-119.64h-34.485v-51.047h16.937v-128.38h-16.937v-63.165l33.288-0.282v-24.622h86.54v27.813h174.28v-27.813h88.534v25.42h24.826v63.993h-11.617v125.91h26.022v51.091h-25.966c0.0001 20.949 0.028 84.313 0.095 118.72h27.332s-0.027 50.377 0 53.973h-89.762v35.444h42.58v52.164l-64.896 0.4047c0 30.602-21.5 46.677-43.19 47.035-21.69 0.3579-43.749-12.961-43.749-47.035h-66.999v-53.992h41.429v-34.947z" stroke="#475569" stroke-width="3" fill="none"/>
  </g>

  <g id="floor3-wifi" display="none">
   <circle id="Bird" opacity="0.595" cx="388.21" display="inline" cy="322.16" r="2.4749" stroke-width="0" fill="#81fbea"/>
   <g stroke="#000" stroke-width="1px" fill="none">
    <path id="PWtoAI" d="m245.23 84.705s-49.737-2.0598-61.872-7.4247c-12.14-5.364-6.25-2.19-15.21-5.303-8.96-3.112-28.56-4.543-45.25-2.121-16.7 2.422-51.978 12.728-51.978 12.728"/>
    <path id="HACtoBird" d="m351.29 129.61v206.12"/>
    <path id="BirdtoSim" d="m352 330.78s1.8252 49.898-2.8285 50.559c-4.6536 0.66068-35.564 2.7634-45.962 10.253-10.399 7.4898-10.158 16.134-12.374 25.456-2.2168 9.3224-0.70712 25.81-0.70712 25.81"/>
    <path id="SimtoFin" d="m296.14 439.32s-4.8959 18.343-6.0105 27.577c-1.1146 9.2349 3.3876 23.969-0.70711 27.577-4.0947 3.6089-39.598 0.35355-39.598 0.35355"/>
    <path id="SimtoIZ" d="m291.19 447.1s-3.284 31.48 0 40.659c3.284 9.1795 9.8758 9.7691 11.314 13.789 1.438 4.0196 0 7.7782 0 7.7782"/>
   </g>
   <g stroke-width="0" fill="#81fbea">
    <circle id="HAC" opacity="0.595" cx="364.37" display="inline" cy="163.55" r="2.4749"/>
    <circle id="Polar" opacity="0.595" cx="241.34" display="inline" cy="71.624" r="2.4749"/>
    <circle id="AmerInd" opacity="0.595" cx="137.74" display="inline" cy="81.877" r="2.4749"/>
    <circle id="IZ" opacity="0.595" cx="287.51" display="inline" cy="519.4" r="2.4749"/>
    <circle id="Finance" opacity="0.595" cx="254.51" display="inline" cy="504.39" r="2.4749"/>
    <circle id="Simmons" opacity="0.595" cx="301.01" display="inline" cy="435.89" r="2.4749"/>
   </g>
   <path id="FINtoIZ" d="m252.76 493.14 46.5 0.25001" display="inline" stroke="#000" stroke-width="1px" fill="none"/>
   <path id="BirdtoDino" d="m309.51 388.39c-7.2746 1.3781-26.5 7.0001-33.75 5.5 0 0-6.0769 0.67116-7.2501-1.5-1.6185-2.9952 1.9578-6.6055 3.75-9.5001 1.1804-1.9064 2.2636-5.1623 4.5-5 6.2932 0.45647 16.25 29.75 16.25 29.75" stroke="#000" stroke-width="1px" fill="none"/>
  </g>
  <g id="floor3-ani">
   <rect id="rect4758" height="2.8285" width="2.8285" y="-43.636" x="-42.216" fill="#fff"/>
  </g>
 </g>
 <g id="layer1">
  <text id="Time" style="word-spacing:0px;letter-spacing:0px" xml:space="preserve" font-size="13.75px" line-height="125%" y="22.84358" x="599.27911" font-family="sans-serif" fill="#8a8a8a"><tspan id="tspan4652" x="599.27911" y="22.84358"><tspan id="tspan4654" font-size="13.75px" line-height="125%" y="22.84358" x="599.27911" font-family="sans-serif" fill="#8a8a8a">Loading...</tspan></tspan></text>
  <g id="colorIndicators" stroke-linejoin="round" fill-rule="evenodd" transform="translate(-66.569 -585.84)" stroke-dashoffset="0.6" stroke="#475569" stroke-linecap="square" stroke-width="2" fill="#d0d0d0">
   <circle id="cBoth" cy="651.01" cx="593.39" r="17.972"/>
   <circle id="cCMA" cy="651.01" cx="664.52" r="17.972"/>
   <circle id="cCMNH" cy="651.01" cx="735.66" r="17.972"/>
   <circle id="cNeither" cy="651.01" cx="806.79" r="17.972"/>
  </g>
  <text id="text4697" style="word-spacing:0px;letter-spacing:0px" xml:space="preserve" font-size="12.5px" y="649.50201" x="805.04907" font-family="sans-serif" line-height="125%" fill="#000000"><tspan id="tspan4699" x="805.04907" y="649.50201"/></text>
 </g>
</svg>
